<svg width="19" height="20" viewBox="0 0 19 20" fill="none" xmlns="http://www.w3.org/2000/svg">
<g filter="url(#filter0_d_9_56931)">
<g clip-path="url(#clip0_9_56931)">
<path d="M9.57018 17C9.30175 17 9.06911 16.8374 8.87524 16.6794C7.6166 15.5982 5.38862 13.6357 4.51473 12.5694C3.75864 11.6493 3.10695 10.7992 2.78185 9.71955C2.59395 9.10812 2.5 8.46537 2.5 7.81219C2.5 6.95619 2.66255 6.12107 2.98467 5.3292C4.05243 2.70007 6.63683 1 9.57018 1C12.5035 1 15.0879 2.70007 16.1557 5.3292C16.4778 6.12107 16.6404 6.95619 16.6404 7.8107C16.6404 8.4609 16.5449 9.10215 16.3585 9.71955C16.0334 10.7963 15.3817 11.6478 14.6256 12.5679C13.7503 13.6357 11.5238 15.5967 10.2741 16.6704C10.0713 16.8375 9.83712 16.9985 9.57167 16.9985L9.57018 17Z" fill="white"/>
<path d="M15.7947 5.48132H3.29327C2.998 6.20758 2.83545 6.99796 2.83545 7.82413C2.83545 8.44898 2.92791 9.05444 3.10239 9.62561H15.9856C16.1601 9.05444 16.2525 8.44898 16.2525 7.82413C16.2525 6.99796 16.09 6.20758 15.7947 5.48132Z" fill="#F7F5EE"/>
<path d="M9.54319 1.37878C6.69782 1.37878 4.26851 3.08034 3.29321 5.48131H15.7947C14.8194 3.08034 12.3871 1.37878 9.54319 1.37878Z" fill="#660000"/>
<path d="M3.10229 9.62561C3.41696 10.6695 4.09102 11.5225 4.77552 12.3576C5.68818 13.4701 8.17267 15.637 9.14498 16.4721C9.27622 16.581 9.42833 16.6883 9.54316 16.6883C9.65799 16.6883 9.80861 16.581 9.94133 16.4721C10.9136 15.6355 13.3966 13.4701 14.3093 12.3576C14.9953 11.5225 15.6679 10.6695 15.984 9.62561H3.10229Z" fill="#000E35"/>
<path d="M15.7947 5.48133H9.54468V2.50025C9.54468 1.86496 10.1158 1.37284 10.7422 1.4817C13.0567 1.88286 14.9595 3.42485 15.7947 5.48133Z" fill="#FF1200"/>
<path d="M15.9855 9.62561C15.6694 10.6695 14.9968 11.5225 14.3108 12.3576C13.3982 13.4701 10.9137 15.637 9.94285 16.4721C9.81162 16.581 9.65951 16.6883 9.54468 16.6883V10.6978C9.54468 10.1058 10.0249 9.62561 10.6154 9.62561H15.9855Z" fill="#0043FF"/>
</g>
</g>
<defs>
<filter id="filter0_d_9_56931" x="0.5" y="0" width="18.1404" height="20" filterUnits="userSpaceOnUse" color-interpolation-filters="sRGB">
<feFlood flood-opacity="0" result="BackgroundImageFix"/>
<feColorMatrix in="SourceAlpha" type="matrix" values="0 0 0 0 0 0 0 0 0 0 0 0 0 0 0 0 0 0 127 0" result="hardAlpha"/>
<feOffset dy="1"/>
<feGaussianBlur stdDeviation="1"/>
<feColorMatrix type="matrix" values="0 0 0 0 0 0 0 0 0 0 0 0 0 0 0 0 0 0 0.08 0"/>
<feBlend mode="normal" in2="BackgroundImageFix" result="effect1_dropShadow_9_56931"/>
<feBlend mode="normal" in="SourceGraphic" in2="effect1_dropShadow_9_56931" result="shape"/>
</filter>
<clipPath id="clip0_9_56931">
<rect x="2.5" y="1" width="14.1404" height="16" rx="6" fill="white"/>
</clipPath>
</defs>
</svg>
